<svg width="24" height="24" viewBox="0 0 24 24" fill="none" xmlns="http://www.w3.org/2000/svg">
<path d="M18.1501 7.82006H19.6501V6.24006C19.6501 5.20006 18.8001 4.35006 17.7501 4.35006H15.1101L13.2901 2.53006C12.5801 1.82006 11.4201 1.82006 10.7101 2.53006L8.89011 4.35006H6.25009C5.20009 4.35006 4.3501 5.20006 4.3501 6.24006V7.82006H5.8501H18.1501Z" fill="#697077"/>
<path d="M5.8501 16.0801H4.3501V17.7501C4.3501 18.8001 5.20009 19.6501 6.25009 19.6501H8.89011L10.7101 21.4601C11.0601 21.8201 11.5301 21.9901 12.0001 21.9901C12.4701 21.9901 12.9401 21.8201 13.2901 21.4601L15.1101 19.6501H17.7501C18.8001 19.6501 19.6501 18.8001 19.6501 17.7501V16.0801H18.1501H5.8501Z" fill="#697077"/>
<path d="M21.46 10.7001L20.08 9.32007H18.16H5.84H3.92001L2.54001 10.7001C2.19001 11.0501 2 11.5101 2 12.0001C2 12.4801 2.19001 12.9401 2.54001 13.2901L3.82999 14.5801H5.82001H18.18H20.17L21.46 13.2901C21.81 12.9401 22 12.4801 22 12.0001C22 11.5101 21.81 11.0501 21.46 10.7001ZM9.48999 13.3901C9.48999 13.4601 9.48001 13.5201 9.45001 13.5801C9.43001 13.6401 9.40001 13.6901 9.35001 13.7301C9.31001 13.7801 9.25 13.8101 9.19 13.8401C9.13 13.8601 9.05999 13.8801 8.98999 13.8801H8.95999C8.88999 13.8701 8.83 13.8501 8.78 13.8201C8.73 13.7901 8.69001 13.7501 8.64001 13.6901L6.98999 11.8601V13.3901C6.98999 13.4601 6.98001 13.5201 6.95001 13.5801C6.93001 13.6401 6.89001 13.6901 6.85001 13.7401C6.80001 13.7801 6.75 13.8201 6.69 13.8401C6.63 13.8701 6.55999 13.8801 6.48999 13.8801C6.41999 13.8801 6.35999 13.8701 6.29999 13.8401C6.23999 13.8201 6.19001 13.7801 6.14001 13.7401C6.10001 13.6901 6.06001 13.6401 6.04001 13.5801C6.01001 13.5201 6 13.4601 6 13.3901V10.6201C6 10.5501 6.01001 10.4901 6.04001 10.4301C6.06001 10.3701 6.09001 10.3201 6.14001 10.2701C6.18001 10.2201 6.23001 10.1901 6.29001 10.1601C6.35001 10.1301 6.41999 10.1201 6.48999 10.1201C6.63999 10.1201 6.77 10.1801 6.88 10.3001L8.5 12.1001V10.6001C8.5 10.5301 8.51001 10.4701 8.54001 10.4101C8.57001 10.3501 8.59999 10.3001 8.64999 10.2601C8.68999 10.2101 8.75 10.1801 8.81 10.1501C8.87 10.1301 8.93 10.1201 9 10.1201C9.07 10.1201 9.14 10.1301 9.19 10.1501C9.25 10.1801 9.31001 10.2101 9.35001 10.2601C9.39001 10.3001 9.43001 10.3501 9.45001 10.4101C9.48001 10.4701 9.48999 10.5301 9.48999 10.6001V13.3901ZM12.13 11.4401C12.2 11.4401 12.26 11.4501 12.32 11.4801C12.38 11.5101 12.43 11.5401 12.48 11.5901C12.52 11.6401 12.56 11.6901 12.58 11.7501C12.61 11.8101 12.62 11.8801 12.62 11.9501C12.62 12.0201 12.61 12.0801 12.58 12.1401C12.56 12.2001 12.52 12.2501 12.48 12.2901C12.43 12.3301 12.38 12.3701 12.32 12.3901C12.26 12.4201 12.2 12.4301 12.13 12.4301H11.02V12.8901H12.36C12.43 12.8901 12.49 12.9001 12.55 12.9301C12.61 12.9601 12.66 12.9901 12.71 13.0401C12.75 13.0801 12.79 13.1401 12.81 13.2001C12.84 13.2601 12.85 13.3201 12.85 13.3901C12.85 13.4601 12.84 13.5301 12.81 13.5801C12.79 13.6501 12.75 13.7001 12.71 13.7401C12.66 13.7801 12.61 13.8201 12.55 13.8401C12.49 13.8701 12.43 13.8801 12.36 13.8801H10.49C10.42 13.8701 10.36 13.8601 10.31 13.8301C10.25 13.8001 10.21 13.7701 10.16 13.7301C10.12 13.6801 10.09 13.6401 10.07 13.5801C10.04 13.5201 10.03 13.4601 10.03 13.4001V10.6101C10.03 10.5401 10.05 10.4801 10.07 10.4201C10.1 10.3601 10.13 10.3101 10.17 10.2601C10.22 10.2201 10.27 10.1801 10.33 10.1601C10.39 10.1301 10.46 10.1201 10.53 10.1201H12.36C12.43 10.1201 12.49 10.1301 12.55 10.1601C12.61 10.1801 12.66 10.2201 12.71 10.2601C12.75 10.3101 12.79 10.3601 12.81 10.4201C12.84 10.4801 12.85 10.5401 12.85 10.6101C12.85 10.6801 12.84 10.7401 12.81 10.8001C12.79 10.8601 12.75 10.9201 12.71 10.9601C12.66 11.0101 12.61 11.0401 12.55 11.0701C12.49 11.0901 12.43 11.1101 12.36 11.1101H11.02V11.4401H12.13ZM17.96 10.7901L16.78 13.5701C16.74 13.6701 16.68 13.7501 16.59 13.8001C16.51 13.8501 16.42 13.8801 16.31 13.8801C16.21 13.8801 16.12 13.8501 16.04 13.8001C15.95 13.7501 15.89 13.6701 15.85 13.5701L15.52 12.8001L15.19 13.5701C15.15 13.6701 15.08 13.7501 15 13.8001C14.91 13.8501 14.82 13.8801 14.72 13.8801C14.62 13.8801 14.53 13.8501 14.45 13.8001C14.36 13.7501 14.3 13.6701 14.26 13.5701L13.07 10.7901C13.05 10.7301 13.03 10.6701 13.03 10.6001C13.03 10.5301 13.05 10.4701 13.07 10.4101C13.1 10.3601 13.14 10.3001 13.18 10.2601C13.23 10.2101 13.29 10.1801 13.35 10.1501C13.41 10.1301 13.47 10.1101 13.54 10.1101C13.6 10.1201 13.66 10.1301 13.72 10.1501C13.77 10.1701 13.82 10.2101 13.87 10.2501C13.91 10.3001 13.95 10.3501 13.98 10.4201L14.72 12.1601L15.46 10.4201C15.48 10.3601 15.52 10.3001 15.57 10.2601C15.61 10.2101 15.66 10.1801 15.72 10.1501C15.78 10.1301 15.84 10.1201 15.91 10.1201C15.97 10.1101 16.04 10.1301 16.1 10.1501C16.16 10.1801 16.22 10.2101 16.26 10.2601C16.31 10.3001 16.34 10.3501 16.37 10.4101C16.39 10.4701 16.41 10.5301 16.41 10.6001C16.41 10.6601 16.4 10.7301 16.37 10.7901L16.06 11.5301L16.32 12.1501L17.06 10.4201C17.08 10.3501 17.12 10.3001 17.16 10.2501C17.21 10.2101 17.26 10.1701 17.32 10.1501C17.37 10.1301 17.43 10.1201 17.5 10.1101C17.56 10.1101 17.62 10.1301 17.69 10.1501C17.75 10.1801 17.81 10.2101 17.85 10.2601C17.9 10.3001 17.94 10.3501 17.96 10.4101C17.99 10.4701 18 10.5301 18 10.6001C18 10.6601 17.99 10.7301 17.96 10.7901Z" fill="#697077"/>
</svg>
