<svg width="20" height="16" viewBox="0 0 20 16" fill="none" xmlns="http://www.w3.org/2000/svg">
<path d="M19.9887 8.17025L20 7.98269C20 7.22043 19.4463 6.59139 18.7307 6.49912L18.5486 6.48748L5.01376 6.48874L8.90011 2.46994C9.32153 1.95889 9.36113 1.21531 8.99653 0.659597L8.87499 0.498938C8.38476 -0.0663986 7.57289 -0.157324 6.98108 0.256947L6.82554 0.382479L0.48302 6.80354C-0.11007 7.35226 -0.157192 8.27947 0.342836 8.88825L6.82516 15.614C7.42036 16.1686 8.3381 16.1198 8.87499 15.505C9.36715 14.9414 9.36844 14.0979 8.90678 13.5341L5.08794 9.47918L18.5486 9.47791C19.2885 9.47791 19.8991 8.90751 19.9887 8.17025Z" fill="#252A31"/>
</svg>
