<svg width="16" height="16" viewBox="0 0 16 16" fill="none" xmlns="http://www.w3.org/2000/svg">
<path d="M8.00062 0.666504C3.95707 0.666504 0.667358 3.95621 0.667358 7.99977C0.667358 12.0434 3.957 15.3332 8.00056 15.3332C12.0442 15.3332 15.3338 12.0434 15.3338 7.99977C15.3339 3.95621 12.0442 0.666504 8.00062 0.666504ZM8.00062 14.3293C4.51061 14.3293 1.6713 11.4899 1.6713 7.99977C1.67124 4.50975 4.51061 1.67038 8.00062 1.67038C11.4906 1.67038 14.33 4.50975 14.33 7.99977C14.33 11.4899 11.4906 14.3293 8.00062 14.3293Z" fill="#343A3F"/>
<path d="M11.7837 7.90217H8.30014V4.09667C8.30014 3.81946 8.07547 3.59473 7.7982 3.59473C7.521 3.59473 7.29626 3.81946 7.29626 4.09667V8.40411C7.29626 8.68131 7.521 8.90605 7.7982 8.90605H11.7837C12.0609 8.90605 12.2856 8.68131 12.2856 8.40411C12.2856 8.1269 12.0609 7.90217 11.7837 7.90217Z" fill="#343A3F"/>
</svg>
