<svg width="24" height="24" viewBox="0 0 24 24" fill="none" xmlns="http://www.w3.org/2000/svg">
<path d="M19.6431 4.35515C20.1185 4.82919 20.119 5.59832 19.6444 6.07305L14.0007 11.7169C13.8445 11.8731 13.8445 12.1264 14.0007 12.2826L19.6444 17.9269C20.0795 18.3621 20.1153 19.0447 19.7521 19.5205L19.6431 19.6448C19.1678 20.1189 18.3977 20.1183 17.9231 19.6436L12.2819 14.0009C12.1256 13.8446 11.8723 13.8446 11.7161 14.001L6.07692 19.6436C5.60229 20.1183 4.8322 20.1189 4.35687 19.6448C3.88154 19.1708 3.88097 18.4017 4.3556 17.9269L9.99856 12.2825C10.1547 12.1263 10.1547 11.8731 9.99854 11.7169L4.3556 6.07305C3.92052 5.63788 3.88475 4.95533 4.24793 4.47947L4.35687 4.35515C4.8322 3.88112 5.60229 3.88169 6.07692 4.35642L11.7161 9.99728C11.8723 10.1535 12.1256 10.1535 12.2818 9.99733L17.9231 4.35642C18.3977 3.88169 19.1678 3.88112 19.6431 4.35515Z" fill="#252A31" stroke="#252A31" stroke-width="0.5"/>
</svg>
