<svg width="25" height="24" viewBox="0 0 25 24" fill="none" xmlns="http://www.w3.org/2000/svg">
<circle cx="10" cy="12" r="10" fill="#E6E9EC"/>
<path d="M15.324 14.7738L13.3053 8.95695C13.1448 8.48103 12.8472 8.06914 12.4537 7.77822C12.0602 7.4873 11.5902 7.33173 11.1087 7.33302C10.681 7.34499 10.2638 7.47417 9.89845 7.7077C9.53314 7.94123 9.23252 8.27097 9.0265 8.66411L8.74717 9.15662H6.43639C6.36157 9.15765 6.28829 9.17905 6.22374 9.21872C6.15919 9.25839 6.10559 9.31497 6.06818 9.3829L5.89043 9.71568C5.88069 9.74642 5.87777 9.77909 5.88188 9.81119C5.886 9.8433 5.89705 9.874 5.91419 9.90095C5.93133 9.92791 5.95411 9.95041 5.9808 9.96674C6.00748 9.98307 6.03737 9.99281 6.06818 9.99521H8.74717C8.78523 9.99619 8.82237 10.0077 8.85481 10.0286C8.88725 10.0495 8.91384 10.079 8.93189 10.1141C8.94994 10.1493 8.95881 10.1888 8.95758 10.2287C8.95636 10.2686 8.94509 10.3074 8.92492 10.3413L8.74717 10.6741C8.70821 10.7395 8.65392 10.7935 8.58948 10.8307C8.52503 10.868 8.45257 10.8874 8.37897 10.887H4.56998C4.49517 10.8881 4.42189 10.9095 4.35734 10.9491C4.29279 10.9888 4.23919 11.0454 4.20178 11.1133L4.02403 11.4594C4.00718 11.4948 3.99896 11.5341 4.0001 11.5736C4.00125 11.6132 4.01172 11.6518 4.03058 11.6861C4.04944 11.7204 4.07611 11.7492 4.1082 11.77C4.14029 11.7909 4.1768 11.8031 4.21448 11.8055H7.27436L6.77919 12.6574H5.29369C5.22009 12.657 5.14762 12.6764 5.08318 12.7137C5.01874 12.751 4.96445 12.8049 4.92549 12.8704L4.73504 13.2165C4.7175 13.2509 4.70877 13.2896 4.70971 13.3287C4.71065 13.3677 4.72123 13.4059 4.7404 13.4394C4.75958 13.4729 4.78671 13.5006 4.81914 13.5199C4.85158 13.5391 4.88822 13.5492 4.92549 13.5492H6.19515L5.58571 14.6674C5.54708 14.7347 5.52639 14.8117 5.52579 14.8903C5.5252 14.9688 5.54472 15.0462 5.58233 15.1141C5.61994 15.1821 5.67425 15.2383 5.73961 15.2767C5.80497 15.3152 5.87897 15.3346 5.95391 15.3329H8.22661C8.37651 15.3322 8.52356 15.2899 8.65288 15.2105C8.78219 15.131 8.88918 15.0171 8.96301 14.8803L9.69942 13.5492H12.353L12.8355 14.8803C12.8798 15.009 12.9609 15.1201 13.0677 15.1987C13.1745 15.2773 13.3018 15.3195 13.4322 15.3196H14.9177C14.9806 15.3171 15.0422 15.3003 15.0982 15.2703C15.1542 15.2403 15.2033 15.1978 15.242 15.1458C15.2807 15.0938 15.3081 15.0336 15.3222 14.9693C15.3364 14.9051 15.337 14.8384 15.324 14.7738ZM10.4358 11.8055C10.3516 11.8053 10.2692 11.7793 10.1988 11.7307C10.1285 11.682 10.0733 11.6129 10.04 11.5317C10.0067 11.4506 9.9968 11.361 10.0115 11.274C10.0262 11.187 10.0649 11.1064 10.1227 11.0422C10.1806 10.978 10.2551 10.9329 10.3371 10.9125C10.4191 10.8922 10.505 10.8974 10.5842 10.9276C10.6634 10.9578 10.7324 11.0117 10.7827 11.0825C10.8331 11.1534 10.8626 11.2381 10.8675 11.3263C10.871 11.3879 10.8624 11.4497 10.8422 11.5077C10.8221 11.5657 10.7908 11.6188 10.7504 11.6637C10.71 11.7086 10.6612 11.7443 10.6071 11.7687C10.553 11.7931 10.4947 11.8056 10.4358 11.8055ZM12.0356 11.8055C11.9508 11.808 11.8673 11.7842 11.7953 11.7372C11.7233 11.6901 11.6662 11.6219 11.631 11.541C11.5957 11.4602 11.584 11.3702 11.5973 11.2824C11.6105 11.1946 11.6481 11.1128 11.7054 11.0473C11.7627 10.9817 11.8372 10.9354 11.9195 10.9139C12.0018 10.8924 12.0883 10.8969 12.1682 10.9266C12.2481 10.9564 12.3179 11.0102 12.3688 11.0813C12.4197 11.1523 12.4496 11.2376 12.4546 11.3263C12.4563 11.3857 12.4468 11.4449 12.4266 11.5005C12.4065 11.5561 12.3761 11.607 12.3372 11.6503C12.2983 11.6935 12.2516 11.7283 12.1999 11.7527C12.1481 11.777 12.0923 11.7905 12.0356 11.7922V11.8055Z" fill="#697077"/>
<g clip-path="url(#clip0_9886_41190)">
<path d="M17.4701 21.3585C17.6107 21.499 17.8014 21.5779 18.0001 21.5779C18.1989 21.5779 18.3895 21.499 18.5301 21.3585L21.3596 18.5305C21.5003 18.3898 21.5793 18.199 21.5793 18C21.5793 17.8011 21.5003 17.6102 21.3596 17.4695C21.2189 17.3288 21.0281 17.2498 20.8291 17.2498C20.6301 17.2498 20.4393 17.3288 20.2986 17.4695L18.7501 19.0175V13.25C18.7501 13.0511 18.6711 12.8604 18.5304 12.7197C18.3898 12.5791 18.199 12.5 18.0001 12.5C17.8012 12.5 17.6104 12.5791 17.4698 12.7197C17.3291 12.8604 17.2501 13.0511 17.2501 13.25V19.0175L15.7021 17.4695C15.6324 17.3999 15.5497 17.3446 15.4587 17.3069C15.3677 17.2692 15.2701 17.2498 15.1716 17.2498C15.0731 17.2498 14.9755 17.2692 14.8845 17.3069C14.7935 17.3446 14.7108 17.3999 14.6411 17.4695C14.5714 17.5392 14.5162 17.6219 14.4785 17.7129C14.4408 17.804 14.4214 17.9015 14.4214 18C14.4214 18.0986 14.4408 18.1961 14.4785 18.2871C14.5162 18.3782 14.5714 18.4609 14.6411 18.5305L17.4701 21.3585Z" fill="#697077"/>
</g>
<defs>
<clipPath id="clip0_9886_41190">
<rect width="12" height="12" fill="white" transform="matrix(-1 0 0 -1 25 23)"/>
</clipPath>
</defs>
</svg>
