<svg width="522" height="90" viewBox="0 0 522 90" fill="none" xmlns="http://www.w3.org/2000/svg">
<g clip-path="url(#clip0_46938_115606)">
<path d="M172.15 13.6834L148.067 77.9606H161.047L166.94 61.8712H192.196L197.938 77.9606H210.978L186.946 13.6834H172.15ZM171.206 49.8318L179.498 27.0461L187.79 49.8318H171.206Z" fill="white"/>
<path d="M246.344 35.4767C243.704 34.0031 240.903 33.2613 237.952 33.2613C234.428 33.2613 231.256 34.4241 228.435 36.7398V13.6834H216.369V77.9606H228.435V56.1272C228.435 44.589 234.308 44.178 236.165 44.178C239.929 44.178 242.951 47.1753 242.951 55.5859V77.9505H255.017V53.9719C255.017 48.699 254.134 44.5288 252.377 41.4513C250.982 38.9452 248.974 36.9503 246.344 35.4767Z" fill="white"/>
<path d="M354.187 33.2312C349.66 33.2312 345.614 34.765 342.03 37.8425C338.698 34.765 335.084 33.2312 331.189 33.2312C327.916 33.2312 324.875 34.3941 322.044 36.7097V34.1435H310.078V77.9305H322.144V54.9142C322.144 45.3108 327.645 44.7694 328.89 44.7694C330.938 44.7694 335.244 46.4435 335.244 54.7839V77.9305H347.311V54.9142C347.311 45.5213 352.019 44.6592 354.016 44.6592C356.827 44.6592 360.311 47.466 360.311 54.7839V77.9305H372.377V54.1223C372.377 48.8494 371.534 44.7795 369.837 41.8924C366.625 36.1183 361.415 33.2312 354.187 33.2312Z" fill="white"/>
<path d="M455.566 34.1234L445.256 60.0568L435.077 34.1234H421.656L439.956 77.9606H450.607L468.856 34.1234H455.566Z" fill="white"/>
<path d="M489.234 33.2613C483.262 33.2613 478.202 35.4266 474.056 39.7572C469.91 44.0878 467.832 49.3907 467.832 55.6661C467.832 62.0015 469.92 67.3045 474.096 71.575C478.272 75.8454 483.502 77.9706 489.787 77.9706C498.139 77.9706 504.744 74.0209 509.582 66.1116L499.032 61.9715C496.773 65.5502 493.661 67.3346 489.706 67.3346C484.928 67.3346 481.756 64.8285 480.18 59.8062H510.155C510.215 58.6133 510.255 57.5206 510.255 56.5081C510.255 49.8017 508.277 44.2481 504.312 39.8474C500.357 35.4667 495.328 33.2613 489.234 33.2613ZM480.18 51.4257C481.625 46.3433 484.637 43.8071 489.234 43.8071C493.631 43.8071 496.643 46.3433 498.279 51.4257H480.18Z" fill="white"/>
<path d="M400.304 33.0708C387.916 33.0708 377.868 43.1054 377.868 55.4756C377.868 67.8458 387.916 77.8804 400.304 77.8804C412.691 77.8804 422.74 67.8458 422.74 55.4756C422.74 43.1054 412.701 33.0708 400.304 33.0708ZM400.324 67.1541C393.99 67.1541 388.86 62.0316 388.86 55.7062C388.86 49.3807 393.99 44.2582 400.324 44.2582C406.658 44.2582 411.788 49.3807 411.788 55.7062C411.788 62.0216 406.658 67.1541 400.324 67.1541Z" fill="white"/>
<path d="M292.671 37.1207C289.218 34.5545 285.604 33.2613 281.83 33.2613C275.857 33.2613 270.787 35.4366 266.601 39.7973C262.425 44.1579 260.337 49.4108 260.337 55.5658C260.337 61.781 262.425 67.0639 266.601 71.4246C270.777 75.7852 275.857 77.9605 281.83 77.9605C285.594 77.9605 289.208 76.6774 292.671 74.1011V77.1987H304.738V34.2637H292.671V37.1207ZM282.683 67.4348C276.76 67.4348 271.962 62.1319 271.962 55.5859C271.962 49.0399 276.76 43.7269 282.683 43.7269C288.606 43.7269 293.404 49.0298 293.404 55.5859C293.404 62.1218 288.606 67.4348 282.683 67.4348Z" fill="white"/>
<path d="M516.68 29.3618C516.68 28.3092 516.188 27.0561 513.869 27.0561H511.299V34.4843H513.056V31.7777H513.668L515.154 34.4743H517.131L515.405 31.4669C516.228 31.0659 516.68 30.3341 516.68 29.3618ZM513.738 30.274H513.046V28.5397H513.738C514.742 28.5397 514.943 28.8505 514.943 29.3517C514.943 29.5823 514.943 30.274 513.738 30.274Z" fill="white"/>
<path d="M513.839 22.6654C509.341 22.6654 505.677 26.3243 505.677 30.8153C505.677 35.3163 509.341 38.9653 513.839 38.9653C518.336 38.9653 522 35.3063 522 30.8153C522 26.3243 518.336 22.6654 513.839 22.6654ZM513.839 37.6019C510.094 37.6019 507.043 34.5545 507.043 30.8153C507.043 27.0762 510.094 24.0287 513.839 24.0287C517.583 24.0287 520.635 27.0762 520.635 30.8153C520.635 34.5645 517.583 37.6019 513.839 37.6019Z" fill="white"/>
<path d="M130.661 83.2736L106.93 18.1344C102.975 7.29791 92.6751 -0.240518 81.1308 0.0100948C71.2028 0.220609 62.0778 5.50352 56.9381 14.0043L53.4448 20.009H53.4347L52.6417 21.3823H33.7794C31.1493 21.3823 29.0112 23.5176 29.0112 26.144C29.0112 28.7704 31.1493 30.9056 33.7794 30.9056H47.1105L47.1005 30.9257H49.1182C51.939 30.9257 54.2177 33.2012 54.2177 36.0181C54.2177 38.835 51.939 41.1106 49.1182 41.1106H41.1878L41.1778 41.1206H4.76827C2.13819 41.1106 0 43.2358 0 45.8622C0 48.4886 2.13819 50.6238 4.76827 50.6238H35.7369L30.3162 59.9867H30.2358L29.7038 60.909H15.8407C13.2106 60.909 11.0724 63.0442 11.0724 65.6706C11.0724 68.297 13.2106 70.4322 15.8407 70.4322H24.273L17.2862 82.5018C15.3588 85.8299 17.7781 90.0001 21.6228 90.0001H47.251C50.8247 90.0001 54.1274 88.0954 55.9243 85.0079L64.5874 70.0012H95.797L101.439 85.0079C102.533 87.915 105.303 89.8497 108.415 89.8698L125.922 90.0001C129.416 90.0101 131.855 86.5517 130.661 83.2736Z" fill="#FF7F32"/>
<path d="M71.3534 50.8744C68.653 50.8744 66.4546 48.689 66.4546 45.9824C66.4546 43.2858 68.643 41.1005 71.3534 41.1005C74.0638 41.1005 76.2522 43.2858 76.2522 45.9824C76.2522 48.689 74.0537 50.8744 71.3534 50.8744Z" fill="#0D4073"/>
<path d="M89.7037 50.8643C86.9933 50.8643 84.8049 48.679 84.8049 45.9824C84.8049 43.2758 86.9933 41.0804 89.7037 41.0804C92.404 41.0804 94.6025 43.2758 94.6025 45.9824C94.6025 48.669 92.404 50.8643 89.7037 50.8643Z" fill="#0D4073"/>
</g>
<defs>
<clipPath id="clip0_46938_115606">
<rect width="522" height="90" fill="white"/>
</clipPath>
</defs>
</svg>
