<svg width="131" height="90" viewBox="0 0 131 90" fill="none" xmlns="http://www.w3.org/2000/svg">
<path d="M130.693 83.2732L106.956 18.1312C103 7.2942 92.6979 -0.244557 81.1508 0.0060667C71.2203 0.21659 62.0931 5.49974 56.9522 14.0009L53.4579 20.0058H53.4479L52.6547 21.3792H33.7877C31.157 21.3792 29.0183 23.5146 29.0183 26.1411C29.0183 28.7676 31.157 30.9029 33.7877 30.9029H47.1221L47.1121 30.923H49.1303C51.9518 30.923 54.2311 33.1987 54.2311 36.0157C54.2311 38.8327 51.9518 41.1083 49.1303 41.1083H41.198L41.1879 41.1184H4.76944C2.13872 41.1083 0 43.2336 0 45.8602C0 48.4867 2.13872 50.622 4.76944 50.622H35.7457L30.3236 59.9853H30.2433L29.7111 60.9076H15.8446C13.2139 60.9076 11.0752 63.0429 11.0752 65.6694C11.0752 68.296 13.2139 70.4313 15.8446 70.4313H24.279L17.2905 82.5013C15.3626 85.8296 17.7825 90 21.6282 90H47.2627C50.8372 90 54.1407 88.0952 55.938 85.0076L64.6034 70.0002H95.8206L101.464 85.0076C102.558 87.9148 105.329 89.8496 108.442 89.8697L125.953 90C129.448 90.01 131.888 86.5514 130.693 83.2732Z" fill="#FF7F32"/>
<path d="M71.371 50.8726C68.67 50.8726 66.471 48.6872 66.471 45.9804C66.471 43.2837 68.6599 41.0983 71.371 41.0983C74.082 41.0983 76.271 43.2837 76.271 45.9804C76.271 48.6872 74.072 50.8726 71.371 50.8726Z" fill="#0D4073"/>
<path d="M89.7258 50.8626C87.0147 50.8626 84.8258 48.6771 84.8258 45.9804C84.8258 43.2737 87.0147 41.0782 89.7258 41.0782C92.4268 41.0782 94.6258 43.2737 94.6258 45.9804C94.6258 48.6671 92.4268 50.8626 89.7258 50.8626Z" fill="#0D4073"/>
</svg>
