<?xml version="1.0" standalone="no"?>
<!DOCTYPE svg PUBLIC "-//W3C//DTD SVG 20010904//EN"
 "http://www.w3.org/TR/2001/REC-SVG-20010904/DTD/svg10.dtd">
<svg version="1.0" xmlns="http://www.w3.org/2000/svg"
 width="1048.000000pt" height="1048.000000pt" viewBox="0 0 1048.000000 1048.000000"
 preserveAspectRatio="xMidYMid meet">
<metadata>
Created by potrace 1.14, written by Peter Selinger 2001-2017
</metadata>
<g transform="translate(0.000000,1048.000000) scale(0.100000,-0.100000)"
fill="#000000" stroke="none">
<path d="M6255 8815 c-264 -35 -486 -102 -730 -221 -375 -182 -699 -470 -927
-824 -30 -47 -128 -212 -218 -367 l-164 -283 -806 -2 -805 -3 -55 -27 c-150
-74 -228 -204 -218 -364 9 -130 80 -240 200 -305 l63 -34 700 -7 c385 -3 716
-11 735 -16 154 -41 273 -166 306 -322 42 -205 -77 -407 -284 -479 -43 -15
-213 -16 -1907 -21 l-1860 -5 -66 -32 c-283 -140 -278 -537 9 -671 l57 -27
1288 -3 c971 -2 1287 -5 1287 -14 0 -13 -369 -655 -437 -760 l-43 -67 -603 -3
-602 -3 -67 -33 c-74 -36 -143 -105 -178 -176 -82 -170 -13 -391 150 -480 97
-53 125 -56 513 -56 196 0 357 -2 357 -4 0 -2 -44 -80 -98 -172 -332 -569
-487 -844 -500 -887 -22 -76 -13 -200 21 -268 50 -104 127 -173 234 -213 57
-21 68 -21 1093 -24 1041 -3 1156 0 1285 33 85 21 229 95 301 154 34 27 84 78
111 113 43 53 246 399 677 1151 l90 157 1254 -2 1254 -3 229 -610 c126 -335
241 -635 256 -665 63 -130 242 -265 392 -295 73 -14 523 -24 1187 -26 386 -1
404 0 465 20 121 41 206 125 249 247 25 72 29 160 10 219 -12 40 -187 522
-485 1340 -84 231 -260 713 -390 1070 -130 358 -343 940 -472 1295 -129 355
-252 692 -273 750 -128 355 -303 828 -334 905 -205 496 -635 939 -1120 1153
-290 128 -557 183 -870 181 -89 -1 -206 -7 -261 -14z"/>
</g>
</svg>
