<svg width="13" height="13" viewBox="0 0 13 13" fill="none" xmlns="http://www.w3.org/2000/svg">
<g clip-path="url(#clip0_18268_1729)">
<path d="M7.89035 5.2532C8.68596 4.52783 9.76188 3.5468 9.85995 1.20312H10.5703V0.5H1.42969V1.20312H2.14005C2.23812 3.5468 3.31404 4.52783 4.10965 5.2532C4.64334 5.73978 4.94531 6.0376 4.94531 6.5C4.94531 6.9624 4.64334 7.26022 4.10965 7.7468C3.31404 8.47217 2.23812 9.4532 2.14005 11.7969H1.42969V12.5H10.5703V11.7969H9.85995C9.76188 9.4532 8.68596 8.47217 7.89035 7.7468C7.35666 7.26022 7.05469 6.9624 7.05469 6.5C7.05469 6.0376 7.35666 5.73978 7.89035 5.2532ZM5.64844 9.13527C5.53985 9.15767 5.43258 9.19027 5.32788 9.23359L3.17452 10.1247C3.52617 9.23052 4.09256 8.71388 4.58337 8.26641C5.1311 7.76703 5.64844 7.29535 5.64844 6.5V9.13527ZM7.41663 8.26641C7.90744 8.71388 8.4738 9.23052 8.82548 10.1246L6.67212 9.23356C6.56742 9.19025 6.46015 9.15765 6.35156 9.13524V6.5C6.35156 7.29535 6.8689 7.76703 7.41663 8.26641ZM3.16216 2.84375C2.99217 2.4008 2.87477 1.86598 2.84405 1.20312H9.15593C9.1252 1.86598 9.00783 2.4008 8.83781 2.84375H3.16216Z" fill="white"/>
</g>
<defs>
<clipPath id="clip0_18268_1729">
<rect width="12" height="12" fill="white" transform="translate(0.5 0.5)"/>
</clipPath>
</defs>
</svg>
