<svg width="24" height="24" viewBox="0 0 24 24" fill="none" xmlns="http://www.w3.org/2000/svg">
<path d="M17.357 2.71045C17.2016 2.95445 17.0071 3.28311 16.7972 3.69186C16.6946 3.89162 16.4128 3.90024 16.2986 3.70682C15.0189 1.5384 13.4867 0 11.8398 0C9.21595 0 6.88301 3.90409 5.39906 8.04132C5.19784 8.60231 4.39515 8.59915 4.21054 8.03247C4.20772 8.02386 4.20494 8.0152 4.20221 8.00649C4.12344 7.75835 3.76617 7.7704 3.69845 8.02174C3.08508 10.2992 2.03177 15.8969 4.96033 20.19C6.396 22.4779 8.93948 24 11.8398 24C14.151 24 16.2349 23.0326 17.7134 21.4825C18.3811 20.6778 20.7716 18.4188 20.7716 13.5088C20.7716 7.16889 17.9521 5.45374 17.7204 2.79751C17.704 2.6096 17.4583 2.55129 17.357 2.71045Z" fill="url(#paint0_radial_18466_4061)"/>
<path d="M11.8857 23.4424C16.2156 23.4424 19.7256 19.9324 19.7256 15.6026C19.7256 11.2727 16.2156 7.7627 11.8857 7.7627C7.55591 7.7627 4.04588 11.2727 4.04588 15.6026C4.04588 19.9324 7.55591 23.4424 11.8857 23.4424Z" fill="url(#paint1_linear_18466_4061)"/>
<path d="M15.9148 8.87622C16.6216 10.0537 17.0284 11.4319 17.0284 12.9053C17.0284 17.2351 13.5184 20.7451 9.18852 20.7451C7.7152 20.7451 6.33699 20.3384 5.15948 19.6315C6.52989 21.9144 9.02923 23.4423 11.8857 23.4423C16.2156 23.4423 19.7256 19.9323 19.7256 15.6025C19.7256 12.746 18.1977 10.2467 15.9148 8.87622Z" fill="url(#paint2_linear_18466_4061)"/>
<path d="M11.8857 22.8282C15.8764 22.8282 19.1115 19.5931 19.1115 15.6025C19.1115 11.6118 15.8764 8.37671 11.8857 8.37671C7.89508 8.37671 4.66 11.6118 4.66 15.6025C4.66 19.5931 7.89508 22.8282 11.8857 22.8282Z" fill="url(#paint3_linear_18466_4061)"/>
<path d="M7.27407 14.4969V12.7713C7.27407 11.5682 8.06391 11.1308 9.09685 11.1308C10.1176 11.1308 10.9196 11.5682 10.9196 12.7713V14.4969C10.9196 15.6999 10.1176 16.1374 9.09685 16.1374C8.06391 16.1373 7.27407 15.6999 7.27407 14.4969ZM9.70442 12.7713C9.70442 12.3703 9.47355 12.188 9.09685 12.188C8.72014 12.188 8.50137 12.3703 8.50137 12.7713V14.4969C8.50137 14.8978 8.72014 15.0801 9.09685 15.0801C9.47355 15.0801 9.70442 14.8978 9.70442 14.4969V12.7713ZM14.6867 11.2766C14.6867 11.3495 14.6745 11.4345 14.6381 11.5075L10.3606 20.269C10.2756 20.4513 10.0447 20.5729 9.81379 20.5729C9.40066 20.5729 9.13332 20.2326 9.13332 19.9288C9.13332 19.8559 9.1576 19.7708 9.19407 19.6979L13.4594 10.9364C13.5566 10.7298 13.7511 10.6326 13.9698 10.6326C14.31 10.6325 14.6867 10.8877 14.6867 11.2766ZM12.8518 18.4097V16.6842C12.8518 15.4811 13.6416 15.0437 14.6745 15.0437C15.6953 15.0437 16.4974 15.4811 16.4974 16.6842V18.4097C16.4974 19.6128 15.6953 20.0503 14.6745 20.0503C13.6417 20.0503 12.8518 19.6128 12.8518 18.4097ZM15.2822 16.6842C15.2822 16.2832 15.0513 16.1009 14.6746 16.1009C14.2979 16.1009 14.0792 16.2832 14.0792 16.6842V18.4097C14.0792 18.8108 14.2979 18.993 14.6746 18.993C15.0513 18.993 15.2822 18.8108 15.2822 18.4097V16.6842Z" fill="white"/>
<path d="M17.92 16.7253C17.92 20.0548 15.2209 22.7539 11.8914 22.7539C8.56188 22.7539 5.86278 20.0548 5.86278 16.7253C5.86278 13.3957 8.56188 4.93066 11.8914 4.93066C15.2209 4.93066 17.92 13.3957 17.92 16.7253Z" fill="url(#paint4_linear_18466_4061)"/>
<path d="M16.2703 18.375C16.2703 20.7934 14.3098 22.7539 11.8913 22.7539C9.47294 22.7539 7.51242 20.7934 7.51242 18.375C7.51242 15.9566 9.47294 9.80786 11.8913 9.80786C14.3098 9.80786 16.2703 15.9566 16.2703 18.375Z" fill="url(#paint5_linear_18466_4061)"/>
<defs>
<radialGradient id="paint0_radial_18466_4061" cx="0" cy="0" r="1" gradientUnits="userSpaceOnUse" gradientTransform="translate(8.02819 9.14339) scale(13.4629 13.4629)">
<stop stop-color="#FFD945"/>
<stop offset="0.4169" stop-color="#FFD744"/>
<stop offset="0.6278" stop-color="#FFCF3F"/>
<stop offset="0.7926" stop-color="#FFC237"/>
<stop offset="0.9326" stop-color="#FFAF2C"/>
<stop offset="1" stop-color="#FFA325"/>
</radialGradient>
<linearGradient id="paint1_linear_18466_4061" x1="8.90094" y1="12.6178" x2="15.2216" y2="18.9385" gradientUnits="userSpaceOnUse">
<stop stop-color="#FF7044"/>
<stop offset="1" stop-color="#F82814"/>
</linearGradient>
<linearGradient id="paint2_linear_18466_4061" x1="13.2284" y1="16.5226" x2="27.0634" y2="12.4643" gradientUnits="userSpaceOnUse">
<stop stop-color="#F82814" stop-opacity="0"/>
<stop offset="1" stop-color="#C0272D"/>
</linearGradient>
<linearGradient id="paint3_linear_18466_4061" x1="13.3711" y1="18.0586" x2="3.9633" y2="2.50193" gradientUnits="userSpaceOnUse">
<stop stop-color="#FF7044" stop-opacity="0"/>
<stop offset="1" stop-color="#FFA325"/>
</linearGradient>
<linearGradient id="paint4_linear_18466_4061" x1="13.1818" y1="16.887" x2="5.53958" y2="6.03772" gradientUnits="userSpaceOnUse">
<stop stop-color="#FFD945" stop-opacity="0"/>
<stop offset="1" stop-color="#FBED21"/>
</linearGradient>
<linearGradient id="paint5_linear_18466_4061" x1="9.04466" y1="15.2592" x2="18.3886" y2="18.9751" gradientUnits="userSpaceOnUse">
<stop stop-color="#F35227" stop-opacity="0"/>
<stop offset="1" stop-color="#F35227"/>
</linearGradient>
</defs>
</svg>
