<svg width="75" height="59" viewBox="0 0 75 59" fill="none" xmlns="http://www.w3.org/2000/svg">
<path d="M-4.05312e-06 2.81169C0.972218 2.81169 1.66666 2.12857 1.66666 1.1722C1.66666 0.215833 0.972218 -0.467285 -4.05312e-06 -0.467285C-0.972226 -0.467285 -1.66667 0.215833 -1.66667 1.1722C-1.66667 2.12857 -0.833337 2.81169 -4.05312e-06 2.81169Z" fill="#FFD8BF"/>
<path d="M8.33333 3.08495C9.30556 3.08495 10.1389 2.2652 10.1389 1.30883C10.1389 0.352455 9.30556 -0.467285 8.33333 -0.467285C7.36111 -0.467285 6.52778 0.352455 6.52778 1.30883C6.52778 2.2652 7.36111 3.08495 8.33333 3.08495Z" fill="#FFD8BF"/>
<path d="M16.6667 3.49483C17.9167 3.49483 19.0278 2.40184 19.0278 1.17222C19.0278 -0.0573996 17.9167 -1.15039 16.6667 -1.15039C15.4167 -1.15039 14.3056 -0.0573996 14.3056 1.17222C14.3056 2.53846 15.4167 3.49483 16.6667 3.49483Z" fill="#FFD8BF"/>
<path d="M25 4.0412C26.6667 4.0412 27.9167 2.67496 27.9167 1.17209C27.9167 -0.467404 26.5278 -1.69702 25 -1.69702C23.3333 -1.69702 22.0833 -0.33078 22.0833 1.17209C22.0833 2.81158 23.3333 4.0412 25 4.0412Z" fill="#FFD8BF"/>
<path d="M33.3333 3.90467C34.8611 3.90467 36.1111 2.67505 36.1111 1.17219C36.1111 -0.330683 34.8611 -1.5603 33.3333 -1.5603C31.8056 -1.5603 30.5556 -0.330683 30.5556 1.17219C30.5556 2.67505 31.8056 3.90467 33.3333 3.90467Z" fill="#FFD8BF"/>
<path d="M41.6667 3.35806C42.9167 3.35806 43.8889 2.40169 43.8889 1.17207C43.8889 -0.0575472 42.9167 -1.01392 41.6667 -1.01392C40.4167 -1.01392 39.4445 -0.0575472 39.4445 1.17207C39.5833 2.40169 40.5556 3.35806 41.6667 3.35806Z" fill="#FFD8BF"/>
<path d="M50 2.67492C50.8333 2.67492 51.5278 1.9918 51.5278 1.17206C51.5278 0.352309 50.8333 -0.330811 50 -0.330811C49.1667 -0.330811 48.4722 0.352309 48.4722 1.17206C48.4722 1.9918 49.1667 2.67492 50 2.67492Z" fill="#FFD8BF"/>
<path d="M58.3333 2.12855C58.8703 2.12855 59.3056 1.70038 59.3056 1.17219C59.3056 0.643998 58.8703 0.21582 58.3333 0.21582C57.7964 0.21582 57.3611 0.643998 57.3611 1.17219C57.3611 1.70038 57.7964 2.12855 58.3333 2.12855Z" fill="#FFD8BF"/>
<path d="M66.6667 1.5819C66.8056 1.5819 66.9444 1.44527 66.9444 1.30865C66.9444 1.17202 66.8056 1.0354 66.6667 1.0354C66.5278 1.0354 66.3889 1.17202 66.3889 1.30865C66.3889 1.44527 66.5278 1.5819 66.6667 1.5819Z" fill="#FFD8BF"/>
<path d="M-9.53674e-07 11.8289C1.38889 11.8289 2.5 10.7359 2.5 9.36964C2.5 8.0034 1.38889 6.9104 -9.53674e-07 6.9104C-1.38889 6.9104 -2.5 8.0034 -2.5 9.36964C-2.5 10.7359 -1.38889 11.8289 -9.53674e-07 11.8289Z" fill="#FFD8BF"/>
<path d="M8.33333 11.9654C9.8611 11.9654 10.9722 10.7358 10.9722 9.36955C10.9722 8.0033 9.72221 6.77368 8.33333 6.77368C6.80555 6.77368 5.69444 8.0033 5.69444 9.36955C5.69444 10.7358 6.94444 11.9654 8.33333 11.9654Z" fill="#FFD8BF"/>
<path d="M16.6667 12.2387C18.3333 12.2387 19.5833 10.8725 19.5833 9.3696C19.5833 7.73011 18.1944 6.50049 16.6667 6.50049C15 6.50049 13.75 7.86673 13.75 9.3696C13.75 11.0091 15 12.2387 16.6667 12.2387Z" fill="#FFD8BF"/>
<path d="M25 12.2387C26.6667 12.2387 27.9167 11.0091 27.9167 9.3696C27.9167 7.73011 26.6667 6.50049 25 6.50049C23.3333 6.50049 22.0833 7.73011 22.0833 9.3696C22.0833 11.0091 23.4722 12.2387 25 12.2387Z" fill="#FFD8BF"/>
<path d="M33.3333 11.8288C34.7222 11.8288 35.6944 10.7358 35.6944 9.5062C35.6944 8.13996 34.5833 7.18359 33.3333 7.18359C31.9444 7.18359 30.9722 8.27658 30.9722 9.5062C30.9722 10.7358 32.0833 11.8288 33.3333 11.8288Z" fill="#FFD8BF"/>
<path d="M41.6667 11.2823C42.7406 11.2823 43.6111 10.4259 43.6111 9.36953C43.6111 8.31315 42.7406 7.45679 41.6667 7.45679C40.5928 7.45679 39.7222 8.31315 39.7222 9.36953C39.7222 10.4259 40.5928 11.2823 41.6667 11.2823Z" fill="#FFD8BF"/>
<path d="M50 10.7359C50.7671 10.7359 51.3889 10.1242 51.3889 9.36966C51.3889 8.61511 50.7671 8.00342 50 8.00342C49.2329 8.00342 48.6111 8.61511 48.6111 9.36966C48.6111 10.1242 49.2329 10.7359 50 10.7359Z" fill="#FFD8BF"/>
<path d="M58.3333 10.0528C58.7169 10.0528 59.0278 9.74692 59.0278 9.36965C59.0278 8.99237 58.7169 8.68652 58.3333 8.68652C57.9498 8.68652 57.6389 8.99237 57.6389 9.36965C57.6389 9.74692 57.9498 10.0528 58.3333 10.0528Z" fill="#FFD8BF"/>
<path d="M66.6667 9.50615C66.7434 9.50615 66.8056 9.44499 66.8056 9.36953C66.8056 9.29408 66.7434 9.23291 66.6667 9.23291C66.59 9.23291 66.5278 9.29408 66.5278 9.36953C66.5278 9.44499 66.59 9.50615 66.6667 9.50615Z" fill="#FFD8BF"/>
<path d="M-7.15256e-07 20.5727C1.66667 20.5727 3.05556 19.2065 3.05556 17.567C3.05556 15.9275 1.66667 14.5613 -7.15256e-07 14.5613C-1.66667 14.5613 -3.05556 15.9275 -3.05556 17.567C-2.91667 19.2065 -1.66667 20.5727 -7.15256e-07 20.5727Z" fill="#FFD8BF"/>
<path d="M8.33333 20.4362C10 20.4362 11.25 19.07 11.25 17.5671C11.25 15.9276 9.86111 14.698 8.33333 14.698C6.66666 14.698 5.41666 16.0642 5.41666 17.5671C5.41666 19.2066 6.66666 20.4362 8.33333 20.4362Z" fill="#FFD8BF"/>
<path d="M16.6667 20.2994C18.1944 20.2994 19.4444 19.0698 19.4444 17.567C19.4444 16.0641 18.1944 14.8345 16.6667 14.8345C15.1389 14.8345 13.8889 16.0641 13.8889 17.567C13.8889 19.0698 15.1389 20.2994 16.6667 20.2994Z" fill="#FFD8BF"/>
<path d="M25 20.0263C26.3889 20.0263 27.3611 18.9333 27.3611 17.7037C27.3611 16.3375 26.25 15.3811 25 15.3811C23.6111 15.3811 22.6389 16.4741 22.6389 17.7037C22.6389 18.9333 23.75 20.0263 25 20.0263Z" fill="#FFD8BF"/>
<path d="M33.3333 19.4798C34.4072 19.4798 35.2778 18.6234 35.2778 17.567C35.2778 16.5107 34.4072 15.6543 33.3333 15.6543C32.2594 15.6543 31.3889 16.5107 31.3889 17.567C31.3889 18.6234 32.2594 19.4798 33.3333 19.4798Z" fill="#FFD8BF"/>
<path d="M41.6667 19.0699C42.5104 19.0699 43.1944 18.3971 43.1944 17.5671C43.1944 16.7371 42.5104 16.0642 41.6667 16.0642C40.8229 16.0642 40.1389 16.7371 40.1389 17.5671C40.1389 18.3971 40.8229 19.0699 41.6667 19.0699Z" fill="#FFD8BF"/>
<path d="M50 18.5233C50.5556 18.5233 50.9722 18.1135 50.9722 17.567C50.9722 17.0205 50.5556 16.6106 50 16.6106C49.4444 16.6106 49.0278 17.0205 49.0278 17.567C49.0278 18.1135 49.4444 18.5233 50 18.5233Z" fill="#FFD8BF"/>
<path d="M58.3333 17.977C58.6111 17.977 58.75 17.8404 58.75 17.5671C58.75 17.2939 58.6111 17.1572 58.3333 17.1572C58.0556 17.1572 57.9167 17.2939 57.9167 17.5671C57.9167 17.8404 58.0556 17.977 58.3333 17.977Z" fill="#FFD8BF"/>
<path d="M-2.38419e-06 28.2238C1.38889 28.2238 2.36111 27.1308 2.36111 25.9012C2.36111 24.535 1.25 23.5786 -2.38419e-06 23.5786C-1.38889 23.5786 -2.36111 24.6716 -2.36111 25.9012C-2.36111 27.1308 -1.25 28.2238 -2.38419e-06 28.2238Z" fill="#FFD8BF"/>
<path d="M8.33333 28.0871C9.58333 28.0871 10.6944 26.9941 10.6944 25.7645C10.6944 24.5349 9.58333 23.4419 8.33333 23.4419C7.08333 23.4419 5.97221 24.5349 5.97221 25.7645C5.97221 27.1307 7.08333 28.0871 8.33333 28.0871Z" fill="#FFD8BF"/>
<path d="M16.6667 27.9506C17.9167 27.9506 18.8889 26.9942 18.8889 25.7646C18.8889 24.535 17.9167 23.5786 16.6667 23.5786C15.4167 23.5786 14.4444 24.535 14.4444 25.7646C14.5833 26.9942 15.5556 27.9506 16.6667 27.9506Z" fill="#FFD8BF"/>
<path d="M25 27.6773C26.0739 27.6773 26.9445 26.8209 26.9445 25.7646C26.9445 24.7082 26.0739 23.8518 25 23.8518C23.9261 23.8518 23.0556 24.7082 23.0556 25.7646C23.0556 26.8209 23.9261 27.6773 25 27.6773Z" fill="#FFD8BF"/>
<path d="M33.3333 27.2675C34.1771 27.2675 34.8611 26.5946 34.8611 25.7646C34.8611 24.9346 34.1771 24.2617 33.3333 24.2617C32.4896 24.2617 31.8056 24.9346 31.8056 25.7646C31.8056 26.5946 32.4896 27.2675 33.3333 27.2675Z" fill="#FFD8BF"/>
<path d="M41.6667 26.8574C42.2222 26.8574 42.7778 26.3109 42.7778 25.7644C42.7778 25.2179 42.2222 24.6714 41.6667 24.6714C41.1111 24.6714 40.5555 25.2179 40.5555 25.7644C40.5555 26.4475 41.1111 26.8574 41.6667 26.8574Z" fill="#FFD8BF"/>
<path d="M50 26.4477C50.2778 26.4477 50.5556 26.1745 50.5556 25.9012C50.5556 25.628 50.2778 25.3547 50 25.3547C49.7222 25.3547 49.4444 25.628 49.4444 25.9012C49.4444 26.1745 49.7222 26.4477 50 26.4477Z" fill="#FFD8BF"/>
<path d="M58.3334 25.9012C58.4722 25.9012 58.4722 25.9012 58.3334 25.9012C58.4722 25.6279 58.4722 25.6279 58.3334 25.6279C58.3334 25.6279 58.1945 25.7645 58.3334 25.9012C58.3334 25.9012 58.1945 25.9012 58.3334 25.9012Z" fill="#FFD8BF"/>
<path d="M-2.6226e-06 35.738C0.997178 35.738 1.80555 34.9428 1.80555 33.9619C1.80555 32.981 0.997178 32.1858 -2.6226e-06 32.1858C-0.997184 32.1858 -1.80556 32.981 -1.80556 33.9619C-1.80556 34.9428 -0.997184 35.738 -2.6226e-06 35.738Z" fill="#FFD8BF"/>
<path d="M8.33333 35.738C9.30555 35.738 10 34.9182 10 34.0985C10 33.1421 9.16667 32.459 8.33333 32.459C7.36111 32.459 6.66666 33.2787 6.66666 34.0985C6.66666 34.9182 7.36111 35.738 8.33333 35.738Z" fill="#FFD8BF"/>
<path d="M16.6667 35.4647C17.5 35.4647 18.1944 34.7816 18.1944 33.9619C18.1944 33.1421 17.5 32.459 16.6667 32.459C15.8333 32.459 15.1389 33.1421 15.1389 33.9619C15.1389 34.7816 15.8333 35.4647 16.6667 35.4647Z" fill="#FFD8BF"/>
<path d="M25 35.3282C25.7671 35.3282 26.3889 34.7165 26.3889 33.9619C26.3889 33.2074 25.7671 32.5957 25 32.5957C24.2329 32.5957 23.6111 33.2074 23.6111 33.9619C23.6111 34.7165 24.2329 35.3282 25 35.3282Z" fill="#FFD8BF"/>
<path d="M33.3333 34.9183C33.8889 34.9183 34.3056 34.5085 34.3056 33.962C34.3056 33.4155 33.8889 33.0056 33.3333 33.0056C32.7778 33.0056 32.3611 33.4155 32.3611 33.962C32.3611 34.5085 32.7778 34.9183 33.3333 34.9183Z" fill="#FFD8BF"/>
<path d="M41.6667 34.645C41.9444 34.645 42.2222 34.3718 42.2222 34.0985C42.2222 33.8253 41.9444 33.552 41.6667 33.552C41.3889 33.552 41.1111 33.8253 41.1111 34.0985C41.1111 34.3718 41.3889 34.645 41.6667 34.645Z" fill="#FFD8BF"/>
<path d="M50 34.2352C50.1389 34.2352 50.1389 34.0985 50.1389 34.0985L50 33.9619L49.8611 34.0985C49.8611 34.0985 49.8611 34.2352 50 34.2352Z" fill="#FFD8BF"/>
<path d="M-4.41074e-06 43.2524C0.69444 43.2524 1.11111 42.7059 1.11111 42.1594C1.11111 41.4763 0.555551 41.0664 -4.41074e-06 41.0664C-0.694449 41.0664 -1.11111 41.6129 -1.11111 42.1594C-1.11111 42.8425 -0.55556 43.2524 -4.41074e-06 43.2524Z" fill="#FFD8BF"/>
<path d="M8.33333 43.2524C8.88889 43.2524 9.44444 42.7059 9.44444 42.1594C9.44444 41.6129 8.88889 41.0664 8.33333 41.0664C7.77778 41.0664 7.22222 41.6129 7.22222 42.1594C7.22222 42.7059 7.77778 43.2524 8.33333 43.2524Z" fill="#FFD8BF"/>
<path d="M16.6667 43.1159C17.2036 43.1159 17.6389 42.6877 17.6389 42.1595C17.6389 41.6313 17.2036 41.2031 16.6667 41.2031C16.1297 41.2031 15.6944 41.6313 15.6944 42.1595C15.6944 42.6877 16.1297 43.1159 16.6667 43.1159Z" fill="#FFD8BF"/>
<path d="M25 42.8426C25.3835 42.8426 25.6944 42.5367 25.6944 42.1594C25.6944 41.7822 25.3835 41.4763 25 41.4763C24.6165 41.4763 24.3056 41.7822 24.3056 42.1594C24.3056 42.5367 24.6165 42.8426 25 42.8426Z" fill="#FFD8BF"/>
<path d="M33.3333 42.5693C33.6111 42.5693 33.75 42.4326 33.75 42.1594C33.75 41.8861 33.6111 41.7495 33.3333 41.7495C33.0556 41.7495 32.9167 41.8861 32.9167 42.1594C32.9167 42.4326 33.0556 42.5693 33.3333 42.5693Z" fill="#FFD8BF"/>
<path d="M41.6667 42.2959C41.8056 42.2959 41.8056 42.2959 41.6667 42.2959C41.8056 42.0227 41.8056 42.0227 41.6667 42.0227C41.6667 42.0227 41.5278 42.1593 41.6667 42.2959C41.6667 42.2959 41.5278 42.2959 41.6667 42.2959Z" fill="#FFD8BF"/>
<path d="M-7.21216e-06 50.9033C0.277771 50.9033 0.55555 50.6301 0.55555 50.3568C0.55555 50.0836 0.277771 49.8103 -7.21216e-06 49.8103C-0.277785 49.8103 -0.555565 50.0836 -0.555565 50.3568C-0.416676 50.6301 -0.277785 50.9033 -7.21216e-06 50.9033Z" fill="#FFD8BF"/>
<path d="M8.33333 50.7668C8.61111 50.7668 8.75 50.6301 8.75 50.3569C8.75 50.0837 8.61111 49.947 8.33333 49.947C8.05555 49.947 7.91666 50.0837 7.91666 50.3569C7.91666 50.6301 8.05555 50.7668 8.33333 50.7668Z" fill="#FFD8BF"/>
<path d="M16.6667 50.7667C16.8056 50.7667 16.9444 50.6301 16.9444 50.4935C16.9444 50.3568 16.8056 50.2202 16.6667 50.2202C16.5278 50.2202 16.3889 50.3568 16.3889 50.4935C16.3889 50.6301 16.5278 50.7667 16.6667 50.7667Z" fill="#FFD8BF"/>
<path d="M25 50.4935C25.0767 50.4935 25.1389 50.4323 25.1389 50.3568C25.1389 50.2814 25.0767 50.2202 25 50.2202C24.9233 50.2202 24.8611 50.2814 24.8611 50.3568C24.8611 50.4323 24.9233 50.4935 25 50.4935Z" fill="#FFD8BF"/>
</svg>
