<svg width="16" height="16" viewBox="0 0 16 16" fill="none" xmlns="http://www.w3.org/2000/svg">
<g id="voucher">
<path id="Vector" d="M15.9097 11.4318C15.7094 12.0256 15.1966 12.3351 15.1366 12.3351C11.0136 14.3118 14.4876 12.6464 12.3203 13.6853C6.86417 16.0683 6.96451 16.1771 6.23741 15.8845C5.43458 15.5609 5.92397 16.1904 1.83547 8.42065C1.54921 7.88549 1.4939 6.98987 1.88703 6.31715C4.6102 1.1426 5.0362 0.0132654 6.17366 0.000948934C6.2485 0.00647126 5.66699 -0.123889 11.8447 1.33501C12.3653 1.4652 13.006 1.99066 13.3172 2.71459C13.3291 2.74237 13.136 2.17641 15.8666 10.2146C16.0282 10.6028 16.0435 11.0342 15.9097 11.4318Z" fill="url(#paint0_linear_13070_70083)"/>
<path id="Vector_2" d="M12.458 6.67877V14.3568C12.458 15.2618 11.7743 15.9978 10.9336 15.9978H1.5244C0.684073 15.9978 0 15.2618 0 14.3568V6.67877C0 5.95685 0.283442 5.26338 0.777825 4.77608C5.4549 0.165703 5.41984 0.00893596 6.17385 0.000769614C7.04661 0.000769614 6.77445 -0.0603779 11.6802 4.77608C12.1746 5.26338 12.458 5.95685 12.458 6.67877Z" fill="url(#paint1_linear_13070_70083)"/>
<path id="Vector_3" d="M12.4584 6.6791V14.3571C12.4584 15.2621 11.7744 15.9981 10.934 15.9981H6.22925V0.000766193C7.03667 -0.00104111 6.88767 0.051538 11.6805 4.77641C12.1748 5.26371 12.4584 5.95718 12.4584 6.6791Z" fill="url(#paint2_linear_13070_70083)"/>
<path id="Vector_4" d="M6.69832 3.17951C6.69832 3.84346 5.75928 3.84329 5.75928 3.17951C5.75928 2.51563 6.69832 2.51573 6.69832 3.17951Z" fill="#00357B"/>
<path id="Vector_5" d="M6.22893 3.68157C6.22893 2.61643 6.1783 2.63969 6.3654 2.69927C6.88763 2.88144 6.75719 3.68157 6.22893 3.68157Z" fill="#001737"/>
<path id="Vector_6" d="M7.81244 6.85766C5.84766 11.8732 6.41676 10.4205 5.53053 12.6825C5.45522 12.875 5.28115 12.9904 5.09803 12.9904C4.76583 12.9904 4.53583 12.6266 4.66583 12.2943C4.90068 11.6949 5.89485 9.15742 6.94805 6.46942C7.04837 6.21372 7.32306 6.09323 7.56181 6.20067C7.80025 6.30777 7.91275 6.60229 7.81244 6.85766Z" fill="white"/>
<path id="Vector_7" d="M7.81224 6.85766L6.2291 10.899V8.30383L6.94785 6.46942C7.04817 6.21372 7.32286 6.09323 7.56161 6.20067C7.80005 6.30777 7.91255 6.60229 7.81224 6.85766Z" fill="white"/>
<path id="Vector_8" d="M5.36438 7.64709C5.36438 6.67818 4.70175 5.88989 3.88727 5.88989C3.07279 5.88989 2.41016 6.67818 2.41016 7.64709C2.41016 8.616 3.07279 9.40429 3.88727 9.40429C4.70175 9.40429 5.36438 8.616 5.36438 7.64709ZM3.88727 8.40023C3.59476 8.40023 3.3477 8.05534 3.3477 7.64709C3.3477 7.23884 3.59476 6.89395 3.88727 6.89395C4.17977 6.89395 4.42684 7.23884 4.42684 7.64709C4.42684 8.05534 4.17977 8.40023 3.88727 8.40023Z" fill="white"/>
<path id="Vector_9" d="M8.61743 9.87256C7.80295 9.87256 7.14032 10.6608 7.14032 11.6298C7.14032 12.5987 7.80295 13.387 8.61743 13.387C9.43191 13.387 10.0945 12.5987 10.0945 11.6298C10.0945 10.6608 9.43194 9.87256 8.61743 9.87256ZM8.61743 12.3829C8.32493 12.3829 8.07786 12.038 8.07786 11.6298C8.07786 11.2215 8.32493 10.8766 8.61743 10.8766C8.90993 10.8766 9.157 11.2215 9.157 11.6298C9.157 12.038 8.90993 12.3829 8.61743 12.3829Z" fill="white"/>
</g>
<defs>
<linearGradient id="paint0_linear_13070_70083" x1="3.16445" y1="-0.158025" x2="9.96469" y2="15.4954" gradientUnits="userSpaceOnUse">
<stop stop-color="#00FFC2"/>
<stop offset="1" stop-color="#009DDC"/>
</linearGradient>
<linearGradient id="paint1_linear_13070_70083" x1="2.07633" y1="0.334004" x2="11.3961" y2="13.6887" gradientUnits="userSpaceOnUse">
<stop stop-color="#F39221"/>
<stop offset="1" stop-color="#FC1266"/>
</linearGradient>
<linearGradient id="paint2_linear_13070_70083" x1="7.26743" y1="0.334011" x2="16.6695" y2="7.07025" gradientUnits="userSpaceOnUse">
<stop stop-color="#F39221"/>
<stop offset="1" stop-color="#FC1266"/>
</linearGradient>
</defs>
</svg>
